<svg xmlns="http://www.w3.org/2000/svg" xmlns:xlink="http://www.w3.org/1999/xlink" width="432" zoomAndPan="magnify" viewBox="0 0 324 323.999988" height="432" preserveAspectRatio="xMidYMid meet" version="1.0"><path fill="#b3b3b3" d="M 324.015625 162.007812 C 324.015625 203.453125 308.460938 241.253906 282.851562 269.902344 C 253.191406 303.113281 210.042969 324.011719 162.011719 324.011719 C 113.976562 324.011719 70.8125 303.113281 41.167969 269.902344 C 15.558594 241.253906 0.00390625 203.453125 0.00390625 162.007812 C 0.00390625 72.539062 72.527344 0.00390625 162.011719 0.00390625 C 251.476562 0.00390625 324.015625 72.539062 324.015625 162.007812 " fill-opacity="1" fill-rule="nonzero"/><path fill="#f2f2f2" d="M 162.011719 191.847656 C 191.371094 191.847656 218.113281 158.628906 218.113281 122.152344 C 218.113281 87.6875 211.449219 53.609375 162.011719 53.609375 C 112.5625 53.609375 105.894531 87.6875 105.894531 122.152344 C 105.894531 158.628906 132.644531 191.847656 162.011719 191.847656 " fill-opacity="1" fill-rule="nonzero"/><path fill="#f2f2f2" d="M 282.851562 269.902344 C 253.191406 303.113281 210.042969 324.011719 162.011719 324.011719 C 113.976562 324.011719 70.8125 303.113281 41.167969 269.902344 C 40.65625 249.894531 53.980469 203.535156 121.941406 189.265625 C 133.566406 201.128906 147.875 207.839844 162.011719 207.839844 C 176.144531 207.839844 190.441406 201.128906 202.066406 189.265625 C 270.039062 203.535156 283.351562 249.894531 282.851562 269.902344 " fill-opacity="1" fill-rule="nonzero"/><path fill="#b3b3b3" d="M 324.015625 162.007812 C 324.015625 203.453125 308.460938 241.253906 282.851562 269.902344 C 253.191406 303.113281 210.042969 324.011719 162.011719 324.011719 C 113.976562 324.011719 70.8125 303.113281 41.167969 269.902344 C 15.558594 241.253906 0.00390625 203.453125 0.00390625 162.007812 C 0.00390625 72.539062 72.527344 0.00390625 162.011719 0.00390625 C 251.476562 0.00390625 324.015625 72.539062 324.015625 162.007812 " fill-opacity="1" fill-rule="nonzero"/><path fill="#f2f2f2" d="M 162.011719 191.847656 C 191.371094 191.847656 218.113281 158.628906 218.113281 122.152344 C 218.113281 87.6875 211.449219 53.609375 162.011719 53.609375 C 112.5625 53.609375 105.894531 87.6875 105.894531 122.152344 C 105.894531 158.628906 132.644531 191.847656 162.011719 191.847656 " fill-opacity="1" fill-rule="nonzero"/><path fill="#f2f2f2" d="M 282.851562 269.902344 C 253.191406 303.113281 210.042969 324.011719 162.011719 324.011719 C 113.976562 324.011719 70.8125 303.113281 41.167969 269.902344 C 40.65625 249.894531 53.980469 203.535156 121.941406 189.265625 C 133.566406 201.128906 147.875 207.839844 162.011719 207.839844 C 176.144531 207.839844 190.441406 201.128906 202.066406 189.265625 C 270.039062 203.535156 283.351562 249.894531 282.851562 269.902344 " fill-opacity="1" fill-rule="nonzero"/></svg>